<mxfile host="app.diagrams.net" agent="Mozilla/5.0 (Windows NT 10.0; Win64; x64) AppleWebKit/537.36 (KHTML, like Gecko) Chrome/139.0.0.0 Safari/537.36" version="28.2.7">
  <diagram name="Page-1" id="Tyhf3AXOygFTzYmhL6pP">
    <mxGraphModel dx="758" dy="411" grid="1" gridSize="10" guides="1" tooltips="1" connect="1" arrows="1" fold="1" page="1" pageScale="1" pageWidth="850" pageHeight="1100" math="0" shadow="0">
      <root>
        <mxCell id="0" />
        <mxCell id="1" parent="0" />
        <mxCell id="YwcORukq0guQzOU9nWgg-16" value="" style="group" vertex="1" connectable="0" parent="1">
          <mxGeometry x="40" y="39.99999999999999" width="601" height="540" as="geometry" />
        </mxCell>
        <mxCell id="YwcORukq0guQzOU9nWgg-1" value="" style="rounded=0;whiteSpace=wrap;html=1;fillColor=#f5f5f5;fontColor=#333333;strokeColor=#666666;" vertex="1" parent="YwcORukq0guQzOU9nWgg-16">
          <mxGeometry y="7.105427357601002e-15" width="600" height="540" as="geometry" />
        </mxCell>
        <mxCell id="YwcORukq0guQzOU9nWgg-3" value="" style="shape=card;whiteSpace=wrap;html=1;size=60;fillColor=#dae8fc;strokeColor=#6c8ebf;" vertex="1" parent="YwcORukq0guQzOU9nWgg-16">
          <mxGeometry x="460" y="400" width="140" height="140" as="geometry" />
        </mxCell>
        <mxCell id="YwcORukq0guQzOU9nWgg-4" value="" style="shape=card;whiteSpace=wrap;html=1;size=60;flipH=1;fillColor=#f8cecc;strokeColor=#b85450;" vertex="1" parent="YwcORukq0guQzOU9nWgg-16">
          <mxGeometry y="400" width="140" height="140" as="geometry" />
        </mxCell>
        <mxCell id="YwcORukq0guQzOU9nWgg-6" value="" style="endArrow=none;dashed=1;html=1;dashPattern=1 3;strokeWidth=2;rounded=0;entryX=0.5;entryY=0;entryDx=0;entryDy=0;exitX=0.5;exitY=1;exitDx=0;exitDy=0;" edge="1" parent="YwcORukq0guQzOU9nWgg-16" source="YwcORukq0guQzOU9nWgg-1" target="YwcORukq0guQzOU9nWgg-1">
          <mxGeometry width="50" height="50" relative="1" as="geometry">
            <mxPoint x="320" y="550" as="sourcePoint" />
            <mxPoint x="370" y="200" as="targetPoint" />
          </mxGeometry>
        </mxCell>
        <mxCell id="YwcORukq0guQzOU9nWgg-7" value="" style="endArrow=none;dashed=1;html=1;dashPattern=1 3;strokeWidth=2;rounded=0;entryX=1;entryY=0.5;entryDx=0;entryDy=0;exitX=0;exitY=0.5;exitDx=0;exitDy=0;" edge="1" parent="YwcORukq0guQzOU9nWgg-16" source="YwcORukq0guQzOU9nWgg-1" target="YwcORukq0guQzOU9nWgg-1">
          <mxGeometry width="50" height="50" relative="1" as="geometry">
            <mxPoint x="320" y="270" as="sourcePoint" />
            <mxPoint x="370" y="220" as="targetPoint" />
          </mxGeometry>
        </mxCell>
        <mxCell id="YwcORukq0guQzOU9nWgg-8" value="" style="rounded=0;whiteSpace=wrap;html=1;fillColor=#f8cecc;strokeColor=#b85450;" vertex="1" parent="YwcORukq0guQzOU9nWgg-16">
          <mxGeometry x="390" y="210" width="60" height="120" as="geometry" />
        </mxCell>
        <mxCell id="YwcORukq0guQzOU9nWgg-9" value="" style="rounded=0;whiteSpace=wrap;html=1;fillColor=#dae8fc;strokeColor=#6c8ebf;" vertex="1" parent="YwcORukq0guQzOU9nWgg-16">
          <mxGeometry x="160" y="210" width="60" height="120" as="geometry" />
        </mxCell>
        <mxCell id="YwcORukq0guQzOU9nWgg-10" value="" style="shape=card;whiteSpace=wrap;html=1;size=120;flipH=0;flipV=1;rotation=-90;fillColor=#dae8fc;strokeColor=#6c8ebf;" vertex="1" parent="YwcORukq0guQzOU9nWgg-16">
          <mxGeometry x="60" y="-59.99999999999999" width="80" height="200" as="geometry" />
        </mxCell>
        <mxCell id="YwcORukq0guQzOU9nWgg-11" value="" style="shape=card;whiteSpace=wrap;html=1;size=120;flipH=0;flipV=0;rotation=-90;fillColor=#f8cecc;strokeColor=#b85450;" vertex="1" parent="YwcORukq0guQzOU9nWgg-16">
          <mxGeometry x="460" y="-59.99999999999999" width="80" height="200" as="geometry" />
        </mxCell>
        <mxCell id="YwcORukq0guQzOU9nWgg-12" value="" style="endArrow=none;html=1;rounded=0;exitX=0.002;exitY=0.315;exitDx=0;exitDy=0;exitPerimeter=0;fillColor=#f8cecc;strokeColor=#b85450;strokeWidth=2;" edge="1" parent="YwcORukq0guQzOU9nWgg-16" source="YwcORukq0guQzOU9nWgg-1">
          <mxGeometry width="50" height="50" relative="1" as="geometry">
            <mxPoint x="250" y="310" as="sourcePoint" />
            <mxPoint x="300" y="170" as="targetPoint" />
          </mxGeometry>
        </mxCell>
        <mxCell id="YwcORukq0guQzOU9nWgg-13" value="" style="endArrow=none;html=1;rounded=0;fillColor=#dae8fc;strokeColor=#6c8ebf;strokeWidth=2;" edge="1" parent="YwcORukq0guQzOU9nWgg-16">
          <mxGeometry width="50" height="50" relative="1" as="geometry">
            <mxPoint x="300" y="170" as="sourcePoint" />
            <mxPoint x="600" y="170" as="targetPoint" />
          </mxGeometry>
        </mxCell>
        <mxCell id="YwcORukq0guQzOU9nWgg-14" value="" style="endArrow=none;html=1;rounded=0;exitX=0.002;exitY=0.315;exitDx=0;exitDy=0;exitPerimeter=0;fillColor=#f8cecc;strokeColor=#b85450;strokeWidth=2;" edge="1" parent="YwcORukq0guQzOU9nWgg-16">
          <mxGeometry width="50" height="50" relative="1" as="geometry">
            <mxPoint y="371" as="sourcePoint" />
            <mxPoint x="299" y="371" as="targetPoint" />
          </mxGeometry>
        </mxCell>
        <mxCell id="YwcORukq0guQzOU9nWgg-15" value="" style="endArrow=none;html=1;rounded=0;fillColor=#dae8fc;strokeColor=#6c8ebf;strokeWidth=2;" edge="1" parent="YwcORukq0guQzOU9nWgg-16">
          <mxGeometry width="50" height="50" relative="1" as="geometry">
            <mxPoint x="301" y="371" as="sourcePoint" />
            <mxPoint x="601" y="371" as="targetPoint" />
          </mxGeometry>
        </mxCell>
        <mxCell id="YwcORukq0guQzOU9nWgg-5" value="" style="rounded=0;whiteSpace=wrap;html=1;fillColor=#eeeeee;strokeColor=#36393d;" vertex="1" parent="YwcORukq0guQzOU9nWgg-16">
          <mxGeometry x="270" y="170" width="60" height="200" as="geometry" />
        </mxCell>
        <mxCell id="YwcORukq0guQzOU9nWgg-17" value="" style="rounded=0;whiteSpace=wrap;html=1;fillColor=#fff2cc;strokeColor=#d6b656;" vertex="1" parent="YwcORukq0guQzOU9nWgg-16">
          <mxGeometry x="311" y="-40" width="13" height="13" as="geometry" />
        </mxCell>
        <mxCell id="YwcORukq0guQzOU9nWgg-25" value="" style="ellipse;whiteSpace=wrap;html=1;aspect=fixed;fillColor=#fff2cc;strokeColor=#d6b656;" vertex="1" parent="YwcORukq0guQzOU9nWgg-16">
          <mxGeometry x="210" y="-35" width="10" height="10" as="geometry" />
        </mxCell>
        <mxCell id="YwcORukq0guQzOU9nWgg-26" value="" style="ellipse;whiteSpace=wrap;html=1;aspect=fixed;fillColor=#fff2cc;strokeColor=#d6b656;" vertex="1" parent="YwcORukq0guQzOU9nWgg-16">
          <mxGeometry x="230" y="-35" width="10" height="10" as="geometry" />
        </mxCell>
        <mxCell id="YwcORukq0guQzOU9nWgg-27" value="" style="rounded=0;whiteSpace=wrap;html=1;fillColor=#fff2cc;strokeColor=#d6b656;" vertex="1" parent="YwcORukq0guQzOU9nWgg-16">
          <mxGeometry y="480" width="60" height="60" as="geometry" />
        </mxCell>
        <mxCell id="YwcORukq0guQzOU9nWgg-67" value="" style="rounded=0;whiteSpace=wrap;html=1;fillColor=#fff2cc;strokeColor=#d6b656;" vertex="1" parent="YwcORukq0guQzOU9nWgg-16">
          <mxGeometry x="540" y="480" width="60" height="60" as="geometry" />
        </mxCell>
        <mxCell id="YwcORukq0guQzOU9nWgg-19" value="" style="rounded=0;whiteSpace=wrap;html=1;fillColor=#fff2cc;strokeColor=#d6b656;" vertex="1" parent="1">
          <mxGeometry x="371" y="1" width="13" height="13" as="geometry" />
        </mxCell>
        <mxCell id="YwcORukq0guQzOU9nWgg-20" value="" style="rounded=0;whiteSpace=wrap;html=1;fillColor=#fff2cc;strokeColor=#d6b656;" vertex="1" parent="1">
          <mxGeometry x="351" y="19" width="13" height="13" as="geometry" />
        </mxCell>
        <mxCell id="YwcORukq0guQzOU9nWgg-21" value="" style="rounded=0;whiteSpace=wrap;html=1;fillColor=#fff2cc;strokeColor=#d6b656;" vertex="1" parent="1">
          <mxGeometry x="318" y="1" width="13" height="13" as="geometry" />
        </mxCell>
        <mxCell id="YwcORukq0guQzOU9nWgg-22" value="" style="rounded=0;whiteSpace=wrap;html=1;fillColor=#fff2cc;strokeColor=#d6b656;" vertex="1" parent="1">
          <mxGeometry x="318" y="19" width="13" height="13" as="geometry" />
        </mxCell>
        <mxCell id="YwcORukq0guQzOU9nWgg-23" value="" style="rounded=0;whiteSpace=wrap;html=1;fillColor=#fff2cc;strokeColor=#d6b656;" vertex="1" parent="1">
          <mxGeometry x="297" y="2" width="13" height="13" as="geometry" />
        </mxCell>
        <mxCell id="YwcORukq0guQzOU9nWgg-24" value="" style="ellipse;whiteSpace=wrap;html=1;aspect=fixed;fillColor=#fff2cc;strokeColor=#d6b656;" vertex="1" parent="1">
          <mxGeometry x="234" width="10" height="10" as="geometry" />
        </mxCell>
      </root>
    </mxGraphModel>
  </diagram>
</mxfile>
